<?xml version='1.0' encoding='utf-8'?>
<!-- Generator: imaengine 6.0   -->
<svg viewBox="0,0,2925,1439" xmlns:xlink="http://www.w3.org/1999/xlink" xmlns="http://www.w3.org/2000/svg" width="2925" height="1439" version="1.1">
<defs/>
<g id="layer0">
<path d="M0,1439L91,1439L183,1439L274,1439L366,1439L458,1439L549,1439L641,1439L731,1439L823,1439L914,1439L1006,1439L1098,1439L1189,1439L1281,1439L1373,1439L1462,1439L1554,1439L1646,1439L1737,1439L1829,1439L1921,1439L2012,1439L2104,1439L2194,1439L2286,1439L2377,1439L2469,1439L2560,1439L2652,1439L2744,1439L2835,1439L2925,1439L2925,1438L2834,1438L2742,1438L2650,1438L2559,1438L2467,1438L2375,1438L2284,1438L2194,1438L2102,1438L2011,1438L1919,1438L1827,1438L1736,1438L1644,1438L1552,1438L1462,1438L1371,1438L1279,1438L1187,1438L1096,1438L1004,1438L912,1438L821,1438L731,1438L639,1438L548,1438L456,1438L364,1438L273,1438L181,1438L89,1438L0,1438L0,1439Z" stroke="#e9571e" stroke-width="0.75" stroke-linecap="round" fill="#e9571e" stroke-linejoin="round"/>
<path d="M0,1438L89,1438L181,1438L273,1438L364,1438L456,1438L548,1438L639,1438L731,1438L821,1438L912,1438L1004,1438L1096,1438L1187,1438L1279,1438L1371,1438L1462,1438L1552,1438L1644,1438L1736,1438L1827,1438L1919,1438L2011,1438L2102,1438L2194,1438L2284,1438L2375,1438L2467,1438L2559,1438L2650,1438L2742,1438L2834,1438L2925,1438L2925,1348L2925,1258L2925,1168L2925,1078L2925,988L2925,898L2925,809L2925,719L2925,629L2925,539L2925,449L2925,359L2925,269L2925,179L2925,89L2925,0L2834,0L2742,0L2650,0L2559,0L2467,0L2375,0L2284,0L2194,0L2102,0L2011,0L1919,0L1827,0L1736,0L1644,0L1552,0L1462,0L1371,0L1279,0L1187,0L1096,0L1004,0L912,0L821,0L731,0L639,0L548,0L456,0L364,0L273,0L181,0L89,0L0,0L0,89L0,179L0,269L0,359L0,449L0,539L0,629L0,719L0,809L0,898L0,988L0,1078L0,1168L0,1258L0,1348L0,1438Z" stroke="#bce2e3" stroke-width="0.75" stroke-linecap="round" fill="#bce2e3" stroke-linejoin="round"/>
<path d="M1436,1343C1465.2,1341.2 1473.5,1319 1475,1290C1483.1,1268.2 1484.7,1237.4 1485,1210C1475.8,1171 1517.1,1179.9 1533,1168C1556.1,1161.4 1580.9,1153.8 1600,1145C1623.4,1138.8 1647.8,1130.8 1667,1122C1689,1114.6 1713.6,1106.7 1732,1098C1755.1,1090.8 1778.6,1081.8 1797,1073C1820.5,1066.3 1844.2,1057.5 1863,1048C1885.5,1041.4 1909,1032.5 1928,1024C1952.6,1020.8 1970.3,999.8 1996,1006C2030.2,1009.8 2029.6,976.8 2055,974C2086.4,948.2 2082,987.2 2109,988C2140.1,989.3 2157.3,974.1 2176,965C2191.3,958.1 2220.4,933.1 2238,951C2248,968.4 2263.6,995.2 2291,981C2317.2,965 2289.1,933.7 2273,930C2257.8,919.9 2231.2,904.6 2204,914C2200.5,906.4 2241.7,896.2 2252,886C2273,877.2 2295.4,867.1 2314,858C2328.8,839.3 2376.8,841.4 2338,863C2331.3,870 2264.6,884.5 2308,888C2313.8,886 2323.4,884.4 2328,884C2353.7,864.3 2351.8,899.2 2347,918L2347,1008C2340.8,1039.6 2358.3,1070.5 2384,1050C2389.4,1029.4 2384.3,992.1 2386,965L2386,875C2395.1,854.8 2429.5,856.7 2444,844C2457.5,814 2401.2,840.7 2393,844C2363.5,823.8 2413.6,814 2425,807C2445.7,797.8 2466.8,786.5 2486,779C2503.7,766 2535.6,765.4 2538,740C2540.2,713.7 2497.8,707.7 2479,719C2458.7,728.5 2437.1,737.4 2416,747C2395.3,756 2374,767.1 2354,775C2333.7,790.1 2312.8,790.5 2284,784C2260.3,782.7 2239.9,800.9 2219,805C2199.3,815.6 2175.8,824.5 2157,833C2136.1,842.3 2113.4,852 2093,860C2072.9,869 2050.6,879 2030,886C2009.2,895.2 1989.7,908.1 1967,912C1947.9,923.7 1924.3,932.5 1905,941C1895.7,928.9 1880,902.8 1857,905C1836.7,894.9 1807.4,898.4 1781,902C1760.1,910.4 1736.6,919.3 1722,932C1702.8,942 1702.1,982.2 1716,995C1752.2,1014.7 1698.9,1018.3 1686,1027C1665.6,1036.2 1640.1,1043.2 1619,1050C1596.4,1056.9 1573.4,1066.4 1551,1071C1535.2,1069.6 1488.3,1106 1494,1066C1505.5,1047.3 1546.7,1056.1 1565,1046C1588.6,1040.5 1615.3,1034.8 1633,1025C1653.3,1015.4 1669.8,999.4 1674,976C1674.8,946.2 1655.2,933.4 1637,923C1617.1,910.5 1598.4,905.2 1573,900C1550.1,892.3 1520.2,899.3 1491,897C1467.5,889.3 1426.6,911.9 1459,927C1460.3,952 1450.7,978.5 1448,1002C1444.3,1028.2 1438.8,1055.2 1436,1080C1439.7,1113.5 1398.7,1105 1378,1112C1354.8,1118.5 1325.9,1122 1302,1126C1274.1,1127.7 1248.8,1134.8 1219,1133C1193.9,1135.2 1156.5,1136.4 1133,1133C1106.9,1128.2 1074.6,1130.6 1066,1113C1060.1,1090.4 1061.6,1051.7 1069,1034C1080.3,1014.5 1089.5,993.1 1101,974C1112.6,955.9 1126.5,937.4 1138,921C1151.8,905.2 1165,885.9 1179,872C1192,839.1 1214.4,880.2 1230,883C1234.2,895.4 1296.8,913.2 1276,881C1271.7,878.4 1269.6,869.3 1265,868C1241.1,856.5 1250.7,846.9 1270,863C1289,875.3 1309.7,887 1327,897C1369.5,916.3 1342.1,871.4 1323,870C1308.9,855.7 1290.1,842 1274,830C1258.8,819 1225.6,802.1 1258,787C1273,772.6 1290.2,757.3 1302,742C1319.9,729.6 1334.5,711.7 1350,699C1369.7,682.2 1389.2,716.3 1408,717C1423.3,727.6 1465.4,734.9 1478,719C1500.5,694.4 1467,676.3 1448,673C1432,665.1 1388.8,655.2 1418,638C1438.1,626.8 1448.4,606.5 1468,595C1483.5,581.2 1498.8,564 1514,551C1529.3,537.1 1544.6,520 1559,507C1574.4,492.3 1591.6,477.1 1603,461C1618.1,446.2 1636.3,431.9 1647,415C1660.7,398.9 1676.7,382.4 1688,366C1700.6,348.9 1715.3,331.1 1725,313C1737.3,295.7 1748.4,274.3 1755,253C1764.3,235.2 1768.8,197.3 1759,178C1748.2,159 1734.9,139.8 1718,128C1703,114.4 1678.2,106.7 1658,98C1635.5,91.9 1608.9,86.1 1586,81C1564.3,73.3 1534,71.1 1508,68C1481,65 1448,68.1 1422,68C1394.7,70.9 1366.9,75.6 1343,79C1318.8,84.9 1291.8,90.4 1270,96C1245,101.7 1222.3,109.5 1198,116C1175.5,123.2 1151.1,131.1 1131,139C1110.5,148 1088,158 1069,167C1050.7,178.1 1030.7,190.5 1013,200C996.8,214.1 976.9,226.6 964,241C945.2,252.3 932.1,271.8 920,287C907.7,304.7 893.4,322.9 886,343C878,362.8 872.1,395.5 877,421C879.3,448 888.9,474.7 891,493C880.8,515.9 854.4,513.5 849,537C845.6,553.4 824.5,598.7 854,601C877.5,593.9 870.4,554.4 890,546C904.9,506.6 919.2,550.1 923,567C934,586.9 946.5,606.9 958,622C970.5,640.4 985.6,657.6 997,673C1011.6,689.2 1026.3,706.9 1039,720C1054.5,736.2 1071.6,751.4 1083,766C1094.4,778.8 1133.5,795.7 1112,810C1099.3,827.7 1084.3,845.1 1071,860C1060,878.3 1046.2,897 1034,912C1023.7,931.9 1011.5,952.1 1001,969C990.3,988.4 979.6,1010.1 971,1029C961.1,1051.6 955.3,1073.4 958,1103C966.4,1125.6 981.4,1143 997,1154C1017.2,1164.7 1036.6,1177.7 1050,1191C1066.1,1205.6 1088.5,1215.8 1108,1223C1131,1230.6 1156.1,1238 1186,1235C1216.7,1236.2 1248.5,1235.6 1272,1232C1300,1229.7 1328.9,1226.1 1350,1219C1368.2,1223.7 1415.8,1190.2 1408,1223C1402.7,1247.4 1394.3,1271.5 1394,1298C1385.7,1330.2 1410.6,1343.4 1436,1343Z" stroke="#e9571e" stroke-width="0.75" stroke-linecap="round" fill="#e9571e" stroke-linejoin="round"/>
<path d="M1498,1041C1517.6,1040 1532.6,1033.8 1551,1031C1565.8,1025.6 1583.6,1019.9 1595,1013C1610.6,1007.8 1620.9,997 1628,983C1636.8,962.4 1619.5,950.3 1607,946C1594.4,938.4 1575,936.6 1559,930C1542.7,927.5 1519.8,926.9 1503,925C1496.5,939.6 1501.9,966.1 1499,985C1499.3,1002.8 1495.3,1028.3 1498,1041Z" stroke="#bce2e3" stroke-width="0.75" stroke-linecap="round" fill="#bce2e3" stroke-linejoin="round"/>
<path d="M1780,972C1793.9,971.5 1825.9,912.5 1794,925C1769.6,927 1742.5,966 1780,972Z" stroke="#bce2e3" stroke-width="0.75" stroke-linecap="round" fill="#bce2e3" stroke-linejoin="round"/>
<path d="M2109,962C2138.6,956 2173,933.6 2180,921C2171.2,923.3 2165.6,928.3 2157,930C2144.8,941.9 2098.5,945.4 2109,962Z" stroke="#bce2e3" stroke-width="0.75" stroke-linecap="round" fill="#bce2e3" stroke-linejoin="round"/>
<path d="M1986,838C2009.3,846.7 2025.2,820.6 2004,814C1984.9,804.8 1966.4,830.2 1986,838Z" stroke="#e9571e" stroke-width="0.75" stroke-linecap="round" fill="#e9571e" stroke-linejoin="round"/>
<path d="M1168,742C1187.6,730 1207.4,716.3 1217,697C1236.1,685.6 1249.5,668.5 1265,653C1301.6,640.6 1267.1,617.9 1256,604C1245.7,588.8 1231.2,560.8 1244,535C1248.8,514 1279.9,497.4 1302,511C1322.6,534.7 1290.6,553 1279,565C1291.1,579.3 1312.3,609.7 1328,595C1345.3,581.6 1363.5,569.2 1378,553C1396.5,540.7 1411.9,522.4 1427,509C1447.8,498.9 1456.9,477.5 1477,467C1492.9,451.9 1508.7,434.2 1524,421C1541.4,407.5 1553.3,388.9 1568,373C1584.5,358.5 1601.3,341.7 1612,324C1626.8,307.9 1639.5,290 1647,267C1657.1,252 1667.7,214.5 1653,195C1638.1,180.3 1618.2,169.6 1596,160C1572.3,153.9 1548.5,144.2 1517,146C1487,146.3 1455,144.9 1429,149C1402.4,153.8 1374.3,159.3 1350,163C1324.4,168.7 1302.1,177 1277,183C1255.2,191.7 1229.2,199.3 1210,209C1188.6,218.1 1169.1,229.1 1150,241C1130.6,252.1 1110.5,265.6 1094,278C1077,291.5 1058.8,303.8 1043,319C1029.5,336.2 1007.1,347.3 999,368C989.9,389.9 992.2,423.6 995,449C998.1,478.2 1039.6,470.3 1031,507C1003.7,531.7 1041.8,540.8 1055,553C1075.4,564.9 1095.9,577.9 1112,590C1130.9,600.8 1138.3,627.7 1140,650C1141.4,675.7 1085.9,675.2 1122,696C1138,711.5 1153.3,726.8 1168,742Z" stroke="#bce2e3" stroke-width="0.75" stroke-linecap="round" fill="#bce2e3" stroke-linejoin="round"/>
<path d="M660,696C667,695.2 677,698.2 680,694L660,694L660,696Z" stroke="#6ebdce" stroke-width="0.75" stroke-linecap="round" fill="#6ebdce" stroke-linejoin="round"/>
<path d="M634,694L660,694L680,694C711.5,694.6 737.7,687.2 756,676C773.5,663.2 798.4,654.5 798,625C798.4,602.3 772.1,588.8 752,581C721.3,581.4 692.8,586.4 664,586C636,589.5 607.6,594.7 578,593C550,596.9 514.6,595 486,595C460.3,590.9 428.9,588.7 408,579C387.6,570.7 369.2,558.5 357,539C343,514.8 358.8,480.9 370,468C384.2,451.9 405.9,440 423,428C444,418.3 464.8,405.5 488,400C508.1,389.4 534.8,385.6 560,380C590.8,386.5 614,373.7 636,387C664.6,380.8 663.3,442.9 678,421C693.2,395.7 670.6,370.4 652,364C633.1,353.5 606.2,347.8 581,347C577.3,348.9 567.9,349.5 564,348C564.7,345.3 554.6,348.3 555,347C516.7,349.8 482.4,356.6 452,368C421.2,377.1 392.9,391.5 368,405C342.6,420.2 318.8,439 303,461C283.2,478.2 273.2,522.8 283,556C293.8,588 318.2,604.7 338,625C362.7,641.9 392.4,654.9 423,662C453.4,672.9 491.4,677.5 523,683C560.6,687.2 599,691.6 634,694Z" stroke="#e9571e" stroke-width="0.75" stroke-linecap="round" fill="#e9571e" stroke-linejoin="round"/>
<path d="M1697,680C1733,685 1755.8,674.3 1762,652C1762.2,621.5 1737.2,612.9 1727,593C1715.2,575 1697.3,559.4 1677,549C1675.6,544.1 1663.6,547.8 1658,544C1623.3,559.6 1641.9,537.6 1626,525C1594.6,517 1570.8,532.4 1561,549C1554.6,580.5 1578.9,595.6 1603,597C1645.9,581.3 1640.8,624 1651,636C1668.1,651.6 1672.7,672.7 1697,680Z" stroke="#e9571e" stroke-width="0.75" stroke-linecap="round" fill="#e9571e" stroke-linejoin="round"/>
<path d="M2643,660C2671.9,662 2699.5,662.6 2700,636C2698.9,610.6 2669.9,612.5 2647,608C2624.2,604.2 2598.5,602.9 2578,595C2550.1,598 2532.9,586.2 2508,586C2484.3,583.8 2462,579 2437,576C2415.6,571.3 2392.2,567.7 2372,560C2333.6,555.7 2346.8,549.6 2358,525C2352,504.4 2309.6,514 2301,523C2295.4,544 2276.4,552.1 2250,553C2208.3,552.1 2227.3,580.9 2261,567C2289.9,560.4 2308.2,565 2321,581C2339.2,590 2358.9,599.3 2377,604C2396.8,612.5 2418.5,617.8 2441,622C2462.5,627.8 2485.1,632.2 2508,636C2530,641.4 2552.2,646.2 2575,650C2596.9,654.8 2623.9,656.8 2643,660Z" stroke="#e9571e" stroke-width="0.75" stroke-linecap="round" fill="#e9571e" stroke-linejoin="round"/>
<path d="M1937,655C1973.1,661.2 1984.4,641.9 1982,609C1983.6,596.6 1982.1,574.7 1982,569C1979.2,551.8 1983.1,526.8 1979,509C1980.4,488.6 1979.9,465.6 1981,456C1997.6,451.9 2017.5,450.6 2033,445C2053.7,445.3 2073.2,441.4 2088,438C2106.9,436 2120.5,434.9 2141,431C2160.3,430.3 2181.4,428 2196,424C2233.6,421.1 2269.1,415.5 2307,412C2324.7,408.8 2345.2,408.1 2365,407C2382.2,403.8 2406.4,404.5 2418,398C2460.3,383.7 2426.1,333.6 2381,350C2362.8,353.5 2342.8,354.7 2323,356C2304.8,358 2285.3,362.1 2268,363C2234.8,367.2 2203.6,375.8 2166,380C2149.2,384.9 2130.2,387.1 2113,391C2096.8,395 2076.3,398.1 2062,401C2053.6,403.8 2044.4,405.2 2035,407C2017.1,403.1 1969.4,440.1 1979,393C1981.6,374.2 1981,352.4 1984,334C1994.9,306.2 1954.9,322.6 1961,338C1945.4,363.2 1959.2,418.1 1931,431C1915.5,436.7 1897.7,440.1 1884,447C1870.3,454.1 1852.2,459.5 1847,472C1866.2,518.4 1892.8,460.6 1926,467C1953.1,457.6 1932.6,494.8 1935,507C1933.2,525.8 1931.4,547.5 1928,562C1931.5,594.6 1899,644.2 1937,655Z" stroke="#e9571e" stroke-width="0.75" stroke-linecap="round" fill="#e9571e" stroke-linejoin="round"/>
<path d="M1982,609C1985.3,600 1985.3,576.7 1982,569C1982.1,574.7 1983.6,596.6 1982,609Z" stroke="#f7b28b" stroke-width="0.75" stroke-linecap="round" fill="#f7b28b" stroke-linejoin="round"/>
<path d="M564,348C567.9,349.5 577.3,348.9 581,347C576.8,344.6 557.4,344.6 555,347C554.6,348.3 564.7,345.3 564,348Z" stroke="#f7b28b" stroke-width="0.75" stroke-linecap="round" fill="#f7b28b" stroke-linejoin="round"/>
<path d="M1503,81C1507.7,80.5 1518.6,82.6 1517,79C1513.3,79.9 1502.4,77.8 1503,81Z" stroke="#e9571e" stroke-width="0.75" stroke-linecap="round" fill="#e9571e" stroke-linejoin="round"/>
</g>
<g id="layer1" opacity="0.8">
<path d="M-1.9043,1442.81L89.0957,1442.81L181.096,1442.81L272.096,1442.81L364.096,1442.81L456.096,1442.81L547.096,1442.81L639.096,1442.81L731.096,1442.81L822.096,1442.81L914.096,1442.81L1006.1,1442.81L1097.1,1442.81L1189.1,1442.81L1281.1,1442.81L1372.1,1442.81L1462.1,1442.81L1554.1,1442.81L1645.1,1442.81L1737.1,1442.81L1829.1,1442.81L1920.1,1442.81L2012.1,1442.81L2104.1,1442.81L2194.1,1442.81L2285.1,1442.81L2377.1,1442.81L2469.1,1442.81L2560.1,1442.81L2652.1,1442.81L2744.1,1442.81L2835.1,1442.81C2864.9,1443.11 2899.2,1445.01 2923.1,1441.81L2832.1,1441.81L2740.1,1441.81L2648.1,1441.81L2557.1,1441.81L2465.1,1441.81L2373.1,1441.81L2282.1,1441.81L2190.1,1441.81L2098.1,1441.81L2007.1,1441.81L1915.1,1441.81L1823.1,1441.81L1732.1,1441.81L1640.1,1441.81L1549.1,1441.81L1459.1,1441.81L1367.1,1441.81L1275.1,1441.81L1184.1,1441.81L1092.1,1441.81L1000.1,1441.81L909.096,1441.81L817.096,1441.81L727.096,1441.81L636.096,1441.81L544.096,1441.81L452.096,1441.81L361.096,1441.81L269.096,1441.81L177.096,1441.81L86.0957,1441.81C57.0957,1442.81 22.7957,1440.91 -1.9043,1442.81ZM1423.1,1346.81C1459.8,1349.21 1472,1325.61 1473.1,1294.81C1481.3,1270.81 1482.6,1239.11 1483.1,1206.81C1478.6,1170.01 1523.5,1184.01 1541.1,1168.81C1567.3,1161.11 1591.9,1152.91 1616.1,1143.81C1640.5,1135.11 1668.2,1127.01 1690.1,1116.81C1713.5,1108.21 1738.5,1100.31 1762.1,1090.81C1785.6,1081.11 1812.9,1072.61 1834.1,1062.81C1858.9,1054.41 1881.9,1044.51 1906.1,1035.81C1931.6,1027.91 1954,1014.51 1980.1,1009.81C2019.1,1015.51 2026.6,990.009 2049.1,979.809C2084.8,991.709 2075.4,917.209 2095.1,945.809C2117.7,963.709 2142,933.909 2164.1,930.809C2185.7,919.009 2211.4,908.809 2232.1,898.809C2255,888.209 2277.5,877.809 2299.1,866.809C2320.8,855.409 2351.6,853.209 2354.1,822.809C2352.8,772.909 2394.2,805.709 2375.1,836.809C2375.9,863.109 2387.7,802.209 2416.1,812.809C2439.6,803.209 2461.1,791.809 2484.1,782.809C2502.5,768.909 2542.9,768.009 2532.1,732.809C2523.7,710.609 2476.3,715.409 2462.1,729.809C2437.5,738.709 2414.9,752.009 2391.1,759.809C2370.6,771.809 2347.2,781.309 2324.1,790.809C2299.9,791.309 2266.2,777.909 2245.1,796.809C2222.7,807.209 2199.7,817.109 2176.1,826.809C2153.5,837.209 2128.8,848.309 2106.1,856.809C2083.7,867.409 2060.9,877.509 2037.1,886.809C2015.4,898.209 1987.9,906.609 1966.1,915.809C1946,928.809 1918.5,934.309 1899.1,947.809C1914.6,948.109 1945.7,930.909 1968.1,926.809C2015.5,889.309 1949,952.309 1973.1,935.809C1974.3,928.309 1981.4,927.209 1984.1,921.809C1987.3,918.809 1994.9,916.409 1996.1,914.809C2038.4,919.609 1986.8,910.709 2012.1,907.809C2032.3,894.709 2056.4,885.909 2079.1,875.809C2103,866.209 2127.9,855.209 2150.1,845.809C2172.8,836.009 2195.8,826.109 2218.1,815.809C2242.1,809.709 2264.7,786.709 2292.1,796.809C2321.4,811.609 2342.8,788.409 2365.1,780.809C2388.6,771.109 2412.7,759.409 2433.1,748.809C2458.6,741.209 2474.9,724.509 2507.1,723.809C2549.5,734.409 2512.7,770.009 2492.1,769.809C2469.1,780.409 2446.9,791.109 2425.1,801.809C2395.2,815.509 2380,817.109 2368.1,789.809C2340.4,794.409 2357.6,844.509 2326.1,845.809C2303.7,857.009 2280.4,869.509 2257.1,877.809C2236.6,889.809 2213.3,899.409 2190.1,908.809C2168.4,920.809 2143.2,931.509 2121.1,940.809C2095.3,952.809 2077.3,911.809 2070.1,960.809C2044.5,973.809 2037.8,963.509 2028.1,931.809C2009,910.509 2050.5,969.109 2030.1,982.809C2022.4,1003.11 1974.8,1010.41 1956.1,995.809C1947.4,966.909 1961.9,928.809 1947.1,979.809C1964.4,1016.91 1922.7,1020.61 1903.1,1028.81C1878.8,1037.81 1856.2,1048.21 1831.1,1055.81C1808.3,1066.61 1781.1,1075.21 1758.1,1083.81C1734,1092.31 1712,1103.11 1686.1,1109.81C1663.9,1120.91 1638.3,1128.21 1614.1,1136.81C1590.2,1145.81 1565.5,1154.11 1540.1,1160.81C1514.5,1180.51 1479,1167.61 1494.1,1127.81C1487.3,1134.21 1488.1,1182.61 1478.1,1199.81C1475.3,1230.61 1476.6,1267.71 1467.1,1289.81C1465.7,1319.61 1455.5,1345.91 1420.1,1337.81C1384.8,1338.91 1400.8,1287.71 1402.1,1264.81C1405.3,1250.51 1423.4,1193.41 1411.1,1203.81C1404.2,1229.61 1397.7,1255.91 1393.1,1284.81C1384.1,1315.81 1392.6,1347.21 1423.1,1346.81ZM1173.1,1240.81C1205.5,1238.81 1240.6,1239.81 1270.1,1235.81C1303.6,1234.71 1331,1228.01 1358.1,1220.81C1389.9,1218.81 1415.1,1209.91 1415.1,1175.81C1428.2,1115.91 1407.7,1175.91 1404.1,1194.81C1391,1215.71 1352.8,1211.71 1328.1,1220.81C1300.2,1227.21 1268.6,1229.71 1237.1,1231.81C1204.1,1232.51 1170.2,1237.21 1141.1,1227.81C1114,1223.41 1087.5,1214.01 1069.1,1199.81C1046.7,1189.51 1031.9,1170.31 1016.1,1150.81C998.496,1136.81 992.496,1105.31 997.096,1071.81C1001.1,1041.51 1010.9,1017.21 1023.1,995.809C1033.6,972.409 1049.4,952.409 1060.1,931.809C1075.6,913.309 1090.3,893.909 1104.1,873.809C1118.5,856.709 1143.7,840.509 1145.1,817.809C1129.1,799.309 1116.1,793.009 1096.1,771.809C1079.1,755.909 1062.1,737.109 1044.1,722.809C1030.6,703.309 1012.2,687.609 997.096,667.809C982.896,648.809 966.796,630.709 953.096,609.809C940.096,589.309 927.096,568.209 918.096,542.809C896.496,517.809 925.196,581.709 930.096,588.809C944.196,609.409 957.696,629.909 972.096,648.809C988.596,667.109 1002.7,687.209 1020.1,702.809C1034.6,723.409 1053.4,738.709 1069.1,755.809C1084,773.409 1108.3,790.509 1115.1,806.809C1100.8,826.809 1085.1,845.209 1069.1,863.809C1056.5,884.809 1041.2,903.609 1029.1,924.809C1014.5,945.009 1002.7,967.309 990.096,988.809C980.196,1012.31 965.096,1032.91 960.096,1058.81C948.996,1086.91 958.296,1122.71 972.096,1138.81C987.396,1157.71 1015.3,1165.61 1030.1,1180.81C1047.6,1198.61 1069.1,1211.21 1092.1,1220.81C1116.5,1231.21 1143.1,1240.51 1173.1,1240.81ZM1166.1,1189.81C1204,1191.61 1238.1,1187.51 1270.1,1185.81C1302.1,1182.71 1330.9,1176.21 1358.1,1168.81C1396.6,1166.11 1420.7,1141.21 1369.1,1160.81C1340.5,1168.11 1312.4,1175.31 1281.1,1178.81C1248,1182.01 1213.1,1185.21 1178.1,1183.81C1145.3,1183.21 1121.3,1171.91 1099.1,1157.81C1096.6,1153.01 1087.6,1149.61 1083.1,1146.81C1050.7,1123.31 1079.5,1150.41 1092.1,1157.81C1112.4,1173.81 1136,1185.41 1166.1,1189.81ZM1022.1,1162.81C1005,1156.91 987.796,1147.31 979.096,1132.81C966.996,1122.51 960.096,1102.71 962.096,1078.81C964.996,1057.91 972.496,1038.51 979.096,1023.81C987.596,1008.21 996.596,990.409 1004.1,975.809C1012.3,960.709 1024.1,945.609 1030.1,930.809C1041.7,917.709 1051.7,900.909 1060.1,887.809C1070.7,874.509 1082.4,859.409 1092.1,847.809C1102.1,833.709 1114.6,819.309 1124.1,806.809C1119.3,807.909 1152,817.909 1134.1,833.809C1121.7,844.609 1111.4,861.109 1101.1,871.809C1089.4,884.609 1078.7,900.609 1069.1,912.809C1058.6,926.009 1048.8,943.109 1039.1,954.809C1030.3,969.909 1021,987.509 1013.1,1000.81C1005.5,1017.51 999.496,1038.21 993.096,1053.81C988.996,1072.11 989.296,1103.41 992.096,1120.81C996.696,1140.61 1013,1151.11 1022.1,1162.81ZM1141.1,1145.81L1210.1,1145.81C1231.3,1143.91 1255.4,1142.31 1272.1,1138.81C1294,1137.81 1315.4,1133.51 1334.1,1131.81C1352.5,1127.91 1371.4,1124.51 1390.1,1120.81C1424.4,1123.81 1410.1,1129.31 1420.1,1109.81C1403.1,1109.71 1379.8,1116.51 1363.1,1118.81C1344.6,1122.61 1323,1126.81 1304.1,1127.81C1285.3,1131.81 1265.3,1134.21 1244.1,1134.81C1225.3,1139.11 1199.8,1139.31 1178.1,1138.81C1156.2,1139.01 1129.8,1139.71 1113.1,1134.81C1093.4,1133.11 1069.6,1131.21 1064.1,1115.81C1056.6,1101.91 1058.5,1074.31 1062.1,1057.81C1067.2,1039.71 1074.9,1021.71 1081.1,1007.81C1090.3,994.009 1098.6,976.609 1108.1,965.809C1116.3,951.309 1127.8,937.109 1136.1,924.809C1146,912.509 1155.8,900.109 1166.1,887.809C1173.1,876.509 1190.1,853.009 1203.1,870.809C1217.8,879.509 1230.8,892.209 1245.1,896.809C1263.6,913.009 1295.3,896.109 1270.1,880.809C1261.3,868.609 1245.4,862.209 1235.1,849.809C1217.2,844.709 1219.4,807.409 1238.1,822.809C1247.3,817.809 1266.7,839.009 1275.1,843.809C1288.8,854.309 1303.3,865.609 1312.1,875.809C1341,888.309 1321,898.409 1304.1,880.809C1290.3,872.709 1273.9,863.409 1261.1,854.809C1248.8,845.609 1219.9,831.809 1245.1,850.809C1258.8,861.409 1275,871.009 1286.1,878.809C1301.6,887.009 1314.4,896.609 1330.1,901.809C1366.2,915.609 1344.1,886.009 1332.1,880.809C1317.9,873.309 1307.3,858.209 1295.1,849.809C1281.7,840.809 1267.7,829.109 1256.1,819.809C1231,811.909 1247.7,798.409 1259.1,787.809C1271,776.409 1285,764.609 1293.1,752.809C1303.6,740.209 1320.3,731.209 1330.1,720.809C1341.6,713.209 1353.8,687.109 1369.1,700.809C1384.2,709.309 1397.9,717.809 1413.1,723.809C1429.4,730.809 1453.5,737.409 1467.1,727.809C1487.9,725.009 1486.8,692.409 1471.1,686.809C1454.9,681.709 1436.3,674.609 1423.1,665.809C1408.8,659.409 1391.7,654.209 1379.1,642.809C1366.1,634.809 1348.5,626.709 1335.1,618.809C1326.2,605.909 1302.2,604.209 1295.1,589.809C1276.6,582.509 1276.2,559.109 1295.1,552.809C1308.9,545.609 1312.7,518.209 1295.1,510.809C1273.8,505.109 1254.2,517.309 1247.1,528.809C1236.3,539.909 1234.8,567.809 1240.1,582.809C1248.8,598.209 1258,614.709 1268.1,623.809C1279,636.409 1289.1,648.709 1304.1,655.809C1315.2,667.609 1332.1,676.409 1342.1,685.809C1350.5,681.609 1329.2,712.109 1323.1,716.809C1308.7,725.409 1299.1,741.609 1286.1,748.809L1252.1,782.809C1241.1,793.609 1228.7,806.909 1221.1,819.809C1207.2,836.609 1230.6,853.109 1238.1,859.809C1248.9,866.609 1274.1,893.009 1245.1,889.809C1231.7,882.309 1218.7,873.009 1205.1,863.809C1192.4,843.209 1172.2,866.609 1166.1,875.809C1156.3,888.509 1144.1,902.109 1136.1,914.809C1124.3,925.309 1116.3,943.009 1106.1,953.809C1098.2,967.609 1088.4,980.109 1081.1,995.809C1071.7,1008.41 1065.9,1028.31 1059.1,1041.81C1056.1,1059.41 1048.6,1083.61 1053.1,1101.81C1057.1,1124.91 1063,1135.71 1083.1,1136.81C1101.8,1141.51 1122.1,1143.51 1141.1,1145.81ZM1425.1,1132.81C1434.1,1117.21 1438.3,1096.81 1441.1,1074.81C1445.2,1054.31 1447.8,1032.31 1452.1,1011.81C1456.5,991.609 1458,968.409 1464.1,949.809C1477.1,927.309 1434,911.609 1469.1,907.809C1495.2,908.709 1515.7,904.509 1541.1,905.809C1563.8,908.409 1585.8,913.209 1601.1,917.809C1619.8,925.409 1636.5,933.409 1649.1,944.809C1664.8,952.609 1669.6,980.809 1660.1,995.809C1648.2,1008.81 1636.6,1021.91 1617.1,1027.81C1601.3,1035.21 1579,1039.61 1561.1,1042.81C1542.2,1049.11 1518.6,1050.21 1497.1,1053.81C1478.5,1052.71 1532.4,1047.71 1538.1,1042.81C1558.2,1038.61 1576.9,1032.71 1593.1,1023.81C1610.4,1017.71 1625.7,1006.11 1631.1,990.809C1640.7,964.709 1624,950.909 1608.1,942.809C1592.7,935.809 1569.5,932.109 1552.1,926.809C1537.2,927.409 1497.7,914.409 1492.1,933.809C1491,957.409 1491.2,982.309 1489.1,1004.81C1493.5,1030.91 1483.3,1055.31 1487.1,1069.81C1480.9,1094.81 1490.5,1131.51 1490.1,1085.81C1485.5,1055.81 1511.3,1057.01 1534.1,1055.81C1555.8,1053.01 1576.6,1047.01 1594.1,1042.81C1613.7,1037.71 1631.2,1030.51 1645.1,1019.81C1659.1,1009.91 1671.3,995.309 1672.1,974.809C1669.8,953.009 1658.6,939.509 1642.1,930.809C1627.6,922.009 1610,912.809 1591.1,908.809C1573.6,902.909 1551.6,900.309 1527.1,898.809C1506.8,901.809 1478.2,900.109 1459.1,901.809C1426.9,914.109 1467.6,930.509 1457.1,949.809C1452.1,968.709 1449.3,992.809 1445.1,1009.81C1442.7,1032.41 1437.7,1052.11 1434.1,1072.81C1436.8,1098.61 1419.1,1112.01 1425.1,1132.81ZM1506.1,1129.81C1522.9,1116.81 1549.3,1113.81 1570.1,1104.81C1591.6,1097.31 1614.2,1090.61 1635.1,1081.81C1657.9,1075.51 1677.4,1065.61 1700.1,1058.81C1720,1050.31 1742,1040.91 1765.1,1037.81C1732.5,1034.41 1716.8,1048.11 1693.1,1053.81C1673.5,1063.51 1651,1070.41 1630.1,1078.81C1608,1086.11 1587.1,1094.61 1564.1,1101.81C1547,1112.51 1511.8,1108.61 1506.1,1129.81ZM1494.1,1111.81C1496,1085.31 1533.6,1091.61 1550.1,1081.81C1573.6,1076.51 1596,1067.61 1616.1,1060.81C1638.2,1054.71 1661.7,1047.01 1681.1,1039.81C1697,1030.91 1728.8,1021.71 1742.1,1021.81C1716,1011.11 1694.5,1030.11 1675.1,1034.81C1654.3,1041.71 1632.7,1051.51 1610.1,1055.81C1591,1064.81 1564.6,1069.81 1545.1,1076.81C1525.8,1086.01 1488.6,1080.11 1494.1,1111.81ZM2359.1,1058.81C2391.3,1065.91 2384,1030.71 2384.1,1007.81L2384.1,933.809C2388,913.209 2377.9,878.409 2391.1,866.809C2408.8,859.909 2429.5,856.009 2444.1,845.809C2407.3,849.609 2469.5,826.309 2421.1,836.809C2409.3,840.309 2370.3,852.409 2384.1,856.809C2392.2,851.309 2444.4,837.109 2412.1,852.809C2395.1,860.409 2370.2,860.209 2377.1,891.809C2382,915.509 2377.1,942.709 2377.1,963.809C2375.5,989.509 2382.4,1011.51 2377.1,1034.81C2378.3,1068.41 2341.2,1047.81 2350.1,1021.81C2353.8,997.009 2346.2,974.309 2350.1,951.809C2350.4,926.709 2351.5,903.109 2354.1,880.809C2348.8,866.009 2343.6,911.709 2343.1,926.809L2343.1,1000.81C2347.5,1022.61 2340.2,1054.61 2359.1,1058.81ZM1494.1,1048.81C1494.5,1033.91 1497.7,1008.01 1496.1,988.809C1501.1,972.809 1493.9,944.409 1501.1,930.809C1517.6,928.909 1541.5,931.309 1556.1,935.809C1574.6,939.009 1592.2,942.509 1605.1,949.809C1621.9,952.509 1634.8,973.609 1624.1,988.809C1618.3,1003.61 1605.4,1011.91 1591.1,1018.81C1576.6,1025.31 1560.1,1029.91 1543.1,1034.81C1529,1041.21 1507.5,1040.81 1494.1,1048.81ZM1778.1,1032.81C1820.7,1041.81 1839.9,1008.31 1871.1,1018.81C1910.8,1047.81 1925.4,972.709 1908.1,981.809C1921.5,1033.11 1865.3,1010.41 1843.1,1012.81C1838.3,1032.31 1751.7,1023.61 1778.1,1032.81ZM1744.1,1016.81C1739.9,1007.11 1701.9,996.709 1711.1,960.809C1722.8,939.009 1745.2,925.509 1769.1,917.809C1792.4,908.509 1829.6,904.109 1852.1,914.809C1883.4,910.109 1890.7,955.309 1894.1,956.809C1899.1,919.409 1871.1,911.609 1845.1,905.809C1816.5,897.009 1779.8,906.409 1758.1,912.809C1735.7,923.509 1712.8,936.509 1705.1,960.809C1700.2,993.809 1719.6,1010.91 1744.1,1016.81ZM2097.1,991.809C2128.2,995.309 2144.8,983.709 2164.1,974.809C2182.7,965.909 2198.5,951.509 2220.1,947.809C2246,951.409 2242.3,983.309 2266.1,986.809C2296.8,1000.71 2308,960.809 2289.1,947.809C2275,934.809 2257.9,923.609 2236.1,915.809C2205.2,913.009 2186.9,924.709 2171.1,933.809C2153,944.309 2137.9,957.409 2116.1,963.809C2084.6,947.209 2091.7,962.209 2114.1,970.809C2138.1,966.409 2152.7,952.809 2171.1,942.809C2185.7,932.309 2208.5,919.109 2231.1,923.809C2254.3,929.009 2270.7,940.809 2285.1,953.809C2310.7,981.009 2258.8,993.109 2254.1,968.809C2245.8,953.209 2226.4,933.309 2202.1,945.809C2183.5,954.609 2166.2,967.509 2148.1,974.809C2132.8,982.809 2098.7,995.909 2088.1,974.809C2082.4,924.109 2074.1,997.809 2097.1,991.809ZM1771.1,981.809C1794.2,982.709 1800.8,967.009 1806.1,949.809C1800.9,934.109 1839.1,913.809 1818.1,921.809C1801.7,927.309 1803.5,951.409 1794.1,963.809C1787.5,981.709 1754.6,976.009 1758.1,954.809C1765.2,939.609 1782.3,934.309 1797.1,926.809C1815.2,917.609 1838.7,914.409 1801.1,917.809C1786.8,926.509 1768.2,930.209 1758.1,942.809C1744.5,956.709 1756.4,980.509 1771.1,981.809ZM2040.1,924.809C2064.3,916.109 2087,905.909 2109.1,894.809C2132.9,886.009 2154.4,874.609 2178.1,864.809C2199.8,854.209 2223.1,844.609 2245.1,833.809C2267.4,825.109 2290.9,810.409 2312.1,806.809C2277.4,805.509 2262.3,823.309 2238.1,831.809C2214.9,841.709 2192.7,852.409 2169.1,861.809C2148,873.509 2123.9,882.309 2102.1,893.809C2082.9,904.309 2048.7,910.409 2040.1,924.809ZM2271.1,894.809C2299.3,891.409 2330.2,890.709 2349.1,877.809C2351.7,876.009 2362.5,865.909 2354.1,868.809C2322.8,884.009 2343.3,875.809 2356.1,859.809C2362.8,800.709 2356.7,857.009 2338.1,866.809C2316.6,877.009 2290.7,882.809 2271.1,894.809ZM1986.1,841.809C2008,852.109 2019.6,817.809 1996.1,817.809C1979.6,809.809 1965,837.709 1986.1,841.809ZM1171.1,792.809C1198.1,780.809 1211.7,755.609 1235.1,739.809C1253.3,720.309 1275.7,702.309 1295.1,685.809C1316.4,657.109 1262.2,706.309 1252.1,713.809C1233.6,732.909 1214.3,753.909 1194.1,769.809C1175.2,807.609 1147.3,762.109 1131.1,748.809C1114.5,728.109 1095.8,706.409 1073.1,692.809C1057.3,685.909 1104.9,724.109 1113.1,736.809C1133.5,755.409 1151.9,777.409 1171.1,792.809ZM1164.1,752.809C1189.6,747.709 1199.2,725.009 1214.1,711.809C1232.5,701.209 1244.3,683.709 1259.1,669.809C1284.6,652.809 1284.8,633.809 1259.1,662.809C1241.8,674.109 1229.8,691.409 1214.1,704.809C1197.8,717.209 1186.2,741.809 1166.1,743.809C1149,732.309 1136.3,715.709 1120.1,700.809C1116.7,698.709 1112.6,691.609 1108.1,690.809C1074.8,683.509 1120.6,701.409 1120.1,708.809C1131.6,727.409 1152.7,735.709 1164.1,752.809ZM630.096,697.809C657.196,697.509 686.596,699.909 710.096,695.809C731.596,691.709 751.796,682.809 764.096,671.809C782.696,665.009 799.896,649.109 794.096,625.809C791.396,603.109 772.096,593.409 754.096,586.809C728.096,580.609 706.396,591.909 678.096,588.809C654.596,591.309 629.296,595.109 606.096,595.809C582.796,598.909 555.196,600.309 530.096,598.809C509.696,601.209 476.596,599.409 458.096,595.809C432.996,594.209 413.296,586.809 394.096,577.809C376.796,570.009 361.996,555.709 354.096,538.809C342.896,519.209 353.896,492.609 362.096,478.809C376.696,467.209 388.796,450.209 405.096,441.809C421.096,431.509 437.996,421.309 458.096,413.809C476.296,406.409 496.996,398.009 516.096,392.809C537.896,388.709 561.696,383.409 586.096,383.809C613.196,384.309 637.196,389.409 650.096,399.809C668.196,398.109 663.696,463.309 674.096,431.809C687.596,413.809 679.896,384.309 664.096,376.809C650.696,364.809 628.696,357.809 607.096,353.809C588.696,349.609 553.096,350.109 533.096,351.809C509.696,355.609 487.196,360.209 466.096,366.809C446.696,372.909 424.396,379.709 408.096,387.809C390.496,396.009 371.096,405.709 355.096,413.809C340.196,425.009 324.296,438.109 311.096,448.809C300.696,465.609 287.296,479.309 281.096,500.809C274.196,520.509 276.396,551.609 285.096,565.809C291.896,585.809 305.696,601.109 317.096,612.809C332.496,624.509 347.896,638.209 364.096,644.809C382.296,654.809 403.096,661.009 422.096,667.809C443.196,674.209 467.596,678.909 487.096,681.809C511.396,685.409 536.296,689.409 558.096,690.809C581.696,694.309 609.896,695.209 630.096,697.809ZM1704.1,685.809C1743.9,692.309 1775.2,658.609 1751.1,628.809C1735,606.409 1716.2,585.209 1695.1,565.809C1677.5,539.309 1625.5,546.809 1612.1,568.809C1539.6,571.109 1654.4,513.209 1612.1,551.809C1577.1,584.909 1679.3,526.609 1608.1,524.809C1577,525.409 1542.7,554.509 1566.1,584.809C1579.2,617.009 1651.2,579.809 1642.1,626.809C1658.2,652.109 1671.4,678.809 1704.1,685.809ZM1081.1,681.809C1125,690.809 1151.6,660.709 1134.1,626.809C1126.1,597.309 1097.2,584.609 1074.1,568.809C1059.7,552.609 1005.7,543.609 1025.1,514.809C1045,469.109 980.196,483.109 992.096,436.809C985.496,398.009 995.496,361.409 1014.1,344.809C1037.7,329.009 1056.8,306.609 1078.1,290.809C1101.4,274.609 1126.2,257.909 1148.1,242.809C1173.9,229.009 1201.1,214.709 1228.1,203.809C1257,194.109 1288.2,183.709 1318.1,175.809C1348.2,167.109 1383,160.509 1415.1,154.809C1449.1,152.209 1489.5,144.809 1524.1,149.809C1561.9,152.009 1593.1,162.409 1617.1,173.809C1642.3,185.909 1670.4,210.109 1654.1,247.809C1646.3,279.509 1629.9,304.609 1614.1,325.809C1596.5,347.809 1575.9,368.809 1557.1,387.809L1499.1,445.809C1480.4,466.209 1456.3,483.609 1437.1,501.809C1418.1,522.009 1394.7,540.009 1376.1,558.809C1367.6,567.709 1304.3,614.909 1346.1,593.809C1365.6,574.009 1389.1,556.009 1408.1,537.809C1430.2,520.609 1450.4,499.209 1469.1,480.809C1493.5,465.809 1510.4,441.209 1531.1,424.809C1553.1,407.309 1569.6,382.309 1589.1,364.809C1606.9,343.609 1625.7,323.609 1640.1,299.809C1652.6,274.309 1670.5,245.609 1661.1,205.809C1647.5,181.609 1620.7,166.909 1593.1,156.809C1563.8,147.209 1529.1,140.409 1489.1,142.809C1451.1,144.209 1415.5,150.209 1383.1,154.809C1409.1,147.109 1447.2,140.609 1480.1,136.809C1517.8,134.209 1556.7,133.709 1589.1,138.809C1621,147.509 1654.7,155.309 1672.1,173.809C1694.8,190.509 1693.9,238.309 1679.1,262.809C1668.5,291.209 1651.9,316.109 1635.1,336.809C1619.8,360.609 1601.6,383.909 1584.1,403.809C1563.4,422.309 1548.1,448.409 1526.1,463.809C1506.3,483.209 1486.3,504.709 1466.1,521.809C1446.2,541.309 1427.1,563.609 1406.1,579.809C1393.5,589.209 1337.3,639.509 1383.1,607.809C1402.8,588.409 1427,571.009 1445.1,551.809C1465.1,532.609 1485.1,511.009 1504.1,492.809C1524.4,473.809 1546,453.809 1563.1,433.809C1583.8,415.109 1601.9,391.709 1617.1,369.809C1636,349.109 1653.1,324.809 1667.1,300.809C1680,275.109 1695.5,249.109 1695.1,210.809C1690,177.909 1667.8,158.509 1640.1,147.809C1611.4,138.409 1578.7,129.509 1541.1,128.809C1504.1,130.309 1464.2,131.909 1432.1,136.809C1399.5,143.209 1369.4,151.909 1337.1,158.809C1307.1,167.809 1276.1,178.209 1249.1,188.809C1220.3,199.009 1191.8,212.109 1166.1,223.809C1142.9,239.709 1116.5,254.809 1094.1,269.809C1072.2,287.109 1049.2,305.609 1029.1,322.809C1010.2,343.109 986.496,361.009 974.096,385.809C966.896,396.909 936.596,470.309 956.096,443.809C964.696,424.609 979.996,366.709 988.096,378.809C978.696,407.009 994.296,468.609 972.096,464.809C964.796,467.109 953.296,469.109 946.096,468.809C922.396,484.109 903.196,481.009 896.096,482.809C890.496,516.009 847.796,514.909 845.096,549.809C815.096,578.009 858.496,637.409 870.096,582.809C877.896,551.609 901.596,533.809 923.096,517.809C929.696,502.809 1025.5,492.209 963.096,507.809C913.496,509.909 940.496,559.209 970.096,558.809C995.596,573.809 1016,594.909 1029.1,618.809C1050.6,636.309 1048.3,677.309 1081.1,681.809ZM1046.1,669.809C1045.1,653.609 1026.6,632.209 1014.1,618.809C1002.8,601.309 990.396,581.309 974.096,568.809C978.596,583.709 1000.4,601.809 1007.1,618.809C1022.8,634.009 1034.9,654.309 1046.1,669.809ZM2655.1,665.809C2682.1,668.809 2707,652.409 2692.1,628.809C2682.3,612.009 2651.4,614.709 2627.1,609.809C2603,606.809 2579.9,601.609 2553.1,598.809C2530.9,594.909 2504.8,590.909 2483.1,586.809C2459.3,583.009 2433.8,580.309 2410.1,574.809C2385.8,572.609 2366.3,561.909 2343.1,558.809C2291.5,551.809 2362.1,558.109 2356.1,531.809C2353.1,508.609 2309,516.009 2299.1,526.809C2289.9,545.409 2275,558.709 2245.1,556.809C2203.7,558.309 2218,582.009 2257.1,572.809C2284.1,563.909 2305.9,569.509 2319.1,584.809C2337.2,595.009 2359.2,603.209 2377.1,609.809C2398.6,617.309 2421.4,622.609 2444.1,626.809C2466.1,633.609 2492.3,637.609 2513.1,641.809C2535.7,647.609 2560.5,651.009 2583.1,655.809C2608,659.109 2634.2,663.109 2655.1,665.809ZM1942.1,660.809C1965.3,661.709 1977.9,648.609 1979.1,628.809C1982.8,608.009 1979.8,588.309 1979.1,565.809C1978.6,544.009 1976.2,520.709 1977.1,498.809C1973.1,478.809 1972.6,451.409 1996.1,454.809C2017.6,453.109 2039.9,449.709 2056.1,445.809C2077.7,444.909 2096.8,441.609 2116.1,438.809C2135.7,435.509 2159.8,433.909 2176.1,429.809C2197.7,429.109 2217.1,426.209 2236.1,422.809C2256.9,421.009 2280.1,418.509 2298.1,415.809C2318.3,414.009 2338,411.409 2359.1,410.809C2378.9,407.309 2405.7,408.409 2419.1,401.809C2434.6,397.009 2442.4,370.809 2425.1,360.809C2411.7,350.709 2386.9,354.009 2368.1,355.809C2348.2,358.109 2327.6,359.809 2306.1,360.809C2288.1,365.309 2263.4,366.309 2247.1,369.809C2228.1,373.709 2208.9,376.909 2190.1,380.809C2171.7,384.609 2148.6,387.309 2132.1,390.809C2113,394.409 2094.9,398.509 2076.1,401.809C2057.7,406.409 2035.3,409.609 2019.1,413.809C2004.7,410.609 1972.3,432.409 1975.1,415.809C1977.8,395.709 1978.3,370.509 1979.1,350.809C1993.1,329.209 1975,311.209 1961.1,332.809C1954.1,348.609 1951.5,371.709 1947.1,387.809C1944.1,407.009 1949.3,434.509 1927.1,434.809C1910.2,440.409 1891.2,447.109 1876.1,452.809C1862.4,461.009 1842.7,463.709 1845.1,487.809C1861.1,507.509 1881,484.509 1890.1,478.809C1905.4,471.709 1929.3,473.209 1940.1,461.809C1945.3,455.009 1930.7,492.509 1933.1,505.809C1930.6,525.709 1929.5,546.909 1926.1,565.809C1923.7,586.109 1920.9,609.009 1915.1,623.809C1909.5,646.709 1923.4,658.409 1942.1,660.809ZM1395.1,649.809C1425.1,645.409 1436.6,619.909 1455.1,605.809C1476.5,593.309 1490.5,573.209 1508.1,556.809C1528.7,542.809 1546.2,523.309 1561.1,505.809L1612.1,454.809C1631.4,439.209 1646.3,417.109 1661.1,399.809C1677.5,381.909 1692.6,362.909 1705.1,341.809C1721.6,323.809 1733.9,302.009 1744.1,277.809C1754.2,256.209 1766.9,229.309 1760.1,195.809C1753.5,168.509 1736.5,148.509 1718.1,133.809C1700.7,117.809 1675.7,108.709 1649.1,99.8086C1623.9,92.4086 1594,88.2086 1566.1,80.8086C1539.4,74.6086 1508.7,71.3086 1475.1,69.8086C1440.8,71.1086 1406.9,74.1086 1378.1,77.8086C1347.9,81.6086 1319.9,87.7086 1291.1,92.8086C1264.3,100.209 1237.7,107.809 1210.1,114.809C1184.6,122.709 1159,131.209 1134.1,140.809C1109.9,150.909 1084.7,162.609 1062.1,172.809C1042.3,186.709 1018.8,197.209 1000.1,212.809C980.796,227.409 961.796,242.509 944.096,258.809C926.696,275.609 913.896,296.809 898.096,314.809C885.496,337.109 876.396,364.909 873.096,394.809C874.496,428.709 879.296,458.109 888.096,482.809C899.396,478.109 877.196,436.209 881.096,408.809C879.196,378.809 887.696,349.709 900.096,329.809C912.296,307.109 928.796,286.609 944.096,269.809C961.196,252.509 978.496,235.709 999.096,221.809C1018.2,207.209 1039.9,194.809 1060.1,181.809C1083.6,170.509 1106.5,159.209 1131.1,149.809C1155.2,139.309 1183.8,130.909 1208.1,122.809C1233.3,114.009 1261.6,108.209 1288.1,99.8086C1317.1,95.5086 1344,88.3086 1374.1,84.8086C1403.6,79.7086 1436.4,78.4086 1467.1,75.8086C1483.6,76.3086 1572.3,80.8086 1526.1,82.8086C1494.3,85.3086 1461.5,86.5086 1432.1,91.8086C1403.7,97.4086 1373.1,103.809 1348.1,110.809C1321.7,118.909 1295.2,126.509 1270.1,135.809C1245.2,145.109 1220.4,157.309 1196.1,165.809C1174.9,178.209 1151.2,188.709 1131.1,202.809C1109.6,215.209 1089.9,229.609 1069.1,242.809C1050.8,258.609 1032.5,274.409 1013.1,288.809C996.396,307.009 976.996,324.609 962.096,341.809C946.696,360.809 931.896,380.109 921.096,403.809C916.396,418.009 892.296,469.109 912.096,468.809C905.496,453.909 919.596,416.309 930.096,397.809C941.996,375.609 958.296,354.809 972.096,336.809C988.896,319.009 1007.4,303.409 1025.1,286.809C1044.6,272.509 1062.2,256.009 1081.1,240.809C1102.6,228.209 1122.2,213.809 1143.1,200.809C1165.1,188.009 1190,175.909 1212.1,165.809C1236.6,156.009 1259.8,145.109 1284.1,135.809C1310.7,127.809 1337.1,120.209 1363.1,112.809C1390.4,105.309 1418.7,99.6086 1448.1,94.8086C1478,90.2086 1514.2,89.4086 1547.1,89.8086C1581.3,90.3086 1608.4,97.3086 1635.1,103.809C1663.5,110.409 1686.9,121.109 1707.1,133.809C1728.2,147.809 1742.3,167.909 1751.1,191.809C1763,225.009 1745.8,254.409 1739.1,276.809C1727.7,299.209 1714,319.609 1700.1,339.809C1685.2,359.009 1671.5,379.409 1654.1,396.809C1639.9,415.909 1623.8,433.909 1607.1,450.809C1590.3,469.109 1571,486.709 1556.1,503.809C1539.2,521.409 1518.8,535.109 1503.1,552.809C1488.1,572.609 1466.4,585.009 1450.1,602.809C1432.6,619.309 1415,635.809 1395.1,649.809ZM1267.1,567.809C1265.2,556.009 1277.4,534.309 1286.1,522.809C1286.2,534.409 1272.8,553.309 1267.1,567.809Z" fill="#260000"/>
</g>
</svg>
